<?xml version="1.0" encoding="utf-8"?>
<!-- Generator: Adobe Illustrator 21.1.0, SVG Export Plug-In . SVG Version: 6.00 Build 0)  -->
<svg version="1.1" id="Layer_1" xmlns="http://www.w3.org/2000/svg" xmlns:xlink="http://www.w3.org/1999/xlink" x="0px" y="0px"
	 viewBox="0 0 859.2 859.2" style="enable-background:new 0 0 859.2 859.2;" xml:space="preserve">
<style type="text/css">
	.st0{fill:none;stroke:#000000;stroke-width:32.51;stroke-miterlimit:10;}
	.st1{fill:#FFFFFF;}
	.st2{fill:none;stroke:#000000;stroke-width:20;stroke-miterlimit:10;}
</style>
<text transform="matrix(1 0 0 1 -8849.0908 1277.7036)" style="font-family:'CutiveMono-Regular'; font-size:582.4382px; letter-spacing:-116;">KA</text>
<path class="st0" d="M-5193.8,2741.1H-5943c-27.5,0-50-22.5-50-50V1942c0-27.5,22.5-50,50-50h749.2c27.5,0,50,22.5,50,50v749.2
	C-5143.8,2718.6-5166.3,2741.1-5193.8,2741.1z"/>
<g>
	<path d="M-5543.1,2481.5l-1.1,3.1h3.9L-5543.1,2481.5z"/>
	<path d="M-5579.8,2484.5l-0.1,0.2h0.2L-5579.8,2484.5z"/>
	<path d="M-5234.1,2488.8c-2.8-2.8-6.8-4.2-12-4.2h-26.6l-121.8-343.2c-5.2-14.6-14.2-21.9-27.2-21.9H-5644c-5.2,0-9.3,1.3-12.3,4
		c-3,2.7-4.5,5.8-4.5,9.4c0,3.4,1.5,6.3,4.4,8.7c2.9,2.5,7,3.7,12.1,3.7h29.9c4.3,0,6.4,0.7,6.4,2c0,0.7-0.8,1.8-2.4,3.4l-193.8,175
		v-177h64.9c5.2,0,9.1-1.4,12-4.2c2.8-2.8,4.2-6.1,4.2-9.9c0-4-1.5-7.6-4.5-10.6c-3-3-7.1-4.5-12.3-4.5h-149.7
		c-5.4,0-9.6,1.5-12.6,4.4c-3,2.9-4.5,6.4-4.5,10.4c0,4,1.5,7.5,4.4,10.3c2.9,2.8,7.1,4.2,12.4,4.2h53.5v335.8h-53.5
		c-5.2,0-9.3,1.5-12.3,4.4c-3,2.9-4.5,6.3-4.5,10.1c0,4,1.5,7.5,4.5,10.3c3,2.8,7.2,4.2,12.6,4.2h168.6c5.4,0,9.5-1.4,12.4-4.2
		c2.9-2.8,4.4-6.2,4.4-10.3c0-3.8-1.5-7.2-4.4-10.1c-2.9-2.9-7-4.4-12.1-4.4h-82.1v-127.5l62.3-52.5l160.7,179.9l0.1,0.2h-55.9
		c-5.2,0-9.2,1.5-12.1,4.4c-2.9,2.9-4.4,6.3-4.4,10.1c0,4,1.5,7.5,4.4,10.3c2.9,2.8,7.1,4.2,12.4,4.2h144.2c5.4,0,9.6-1.4,12.6-4.2
		c3-2.8,4.5-6.2,4.5-10.3c0-3.8-1.5-7.2-4.5-10.1c-3-2.9-7.1-4.4-12.3-4.4h-53.5l1.1-3.1l36.5-99.9h162.5l36,103h-62.6
		c-5.2,0-9.2,1.4-12.1,4.2c-2.9,2.8-4.4,6.1-4.4,9.9c0,4,1.5,7.5,4.5,10.4c3,2.9,7.2,4.4,12.6,4.4h123.2c5.2,0,9.3-1.5,12.3-4.4
		c3-2.9,4.5-6.4,4.5-10.4C-5229.9,2495-5231.3,2491.7-5234.1,2488.8z M-5567.9,2453.4l-147.8-167.3l147.4-137.3h46.4
		c1.5,0,2.8-0.1,4.1-0.3h67.4L-5567.9,2453.4z M-5495.4,2353.7l74.4-200.9l67,200.9H-5495.4z"/>
</g>
<path d="M-5193.8,3802.3H-5943c-27.5,0-50-22.5-50-50v-749.2c0-27.5,22.5-50,50-50h749.2c27.5,0,50,22.5,50,50v749.2
	C-5143.8,3779.8-5166.3,3802.3-5193.8,3802.3z"/>
<path d="M-6429.6,3815.2h-749.2c-27.5,0-50-22.5-50-50V3016c0-27.5,22.5-50,50-50h749.2c27.5,0,50,22.5,50,50v749.2
	C-6379.6,3792.7-6402.1,3815.2-6429.6,3815.2z"/>
<g>
	<path class="st1" d="M-5543.1,3542.7l-1.1,3.1h3.9L-5543.1,3542.7z"/>
	<path class="st1" d="M-5579.8,3545.6l-0.1,0.2h0.2L-5579.8,3545.6z"/>
	<path class="st1" d="M-5234.1,3550c-2.8-2.8-6.8-4.2-12-4.2h-26.6l-121.8-343.2c-5.2-14.6-14.2-21.9-27.2-21.9H-5644
		c-5.2,0-9.3,1.3-12.3,4c-3,2.7-4.5,5.8-4.5,9.4c0,3.4,1.5,6.3,4.4,8.7c2.9,2.5,7,3.7,12.1,3.7h29.9c4.3,0,6.4,0.7,6.4,2
		c0,0.7-0.8,1.8-2.4,3.4l-193.8,175v-177h64.9c5.2,0,9.1-1.4,12-4.2c2.8-2.8,4.2-6.1,4.2-9.9c0-4-1.5-7.6-4.5-10.6
		c-3-3-7.1-4.5-12.3-4.5h-149.7c-5.4,0-9.6,1.5-12.6,4.4c-3,2.9-4.5,6.4-4.5,10.4c0,4,1.5,7.5,4.4,10.3c2.9,2.8,7.1,4.2,12.4,4.2
		h53.5v335.8h-53.5c-5.2,0-9.3,1.5-12.3,4.4c-3,2.9-4.5,6.3-4.5,10.1c0,4,1.5,7.5,4.5,10.3c3,2.8,7.2,4.2,12.6,4.2h168.6
		c5.4,0,9.5-1.4,12.4-4.2c2.9-2.8,4.4-6.2,4.4-10.3c0-3.8-1.5-7.2-4.4-10.1c-2.9-2.9-7-4.4-12.1-4.4h-82.1v-127.5l62.3-52.5
		l160.7,179.9l0.1,0.2h-55.9c-5.2,0-9.2,1.5-12.1,4.4c-2.9,2.9-4.4,6.3-4.4,10.1c0,4,1.5,7.5,4.4,10.3c2.9,2.8,7.1,4.2,12.4,4.2
		h144.2c5.4,0,9.6-1.4,12.6-4.2c3-2.8,4.5-6.2,4.5-10.3c0-3.8-1.5-7.2-4.5-10.1c-3-2.9-7.1-4.4-12.3-4.4h-53.5l1.1-3.1l36.5-99.9
		h162.5l36,103h-62.6c-5.2,0-9.2,1.4-12.1,4.2c-2.9,2.8-4.4,6.1-4.4,9.9c0,4,1.5,7.5,4.5,10.4c3,2.9,7.2,4.4,12.6,4.4h123.2
		c5.2,0,9.3-1.5,12.3-4.4c3-2.9,4.5-6.4,4.5-10.4C-5229.9,3556.1-5231.3,3552.8-5234.1,3550z M-5567.9,3514.6l-147.8-167.3
		l147.4-137.3h46.4c1.5,0,2.8-0.1,4.1-0.3h67.4L-5567.9,3514.6z M-5495.4,3414.9l74.4-200.9l67,200.9H-5495.4z"/>
</g>
<path d="M-5170.8,1613.8H-5920c-27.5,0-50-22.5-50-50V814.6c0-27.5,22.5-50,50-50h749.2c27.5,0,50,22.5,50,50v749.2
	C-5120.8,1591.3-5143.3,1613.8-5170.8,1613.8z"/>
<g>
	<g>
		<path class="st1" d="M-5508.6,1358.7l-1.1,3.1h3.9L-5508.6,1358.7z"/>
		<path class="st1" d="M-5545.4,1361.7l-0.1,0.2h0.2L-5545.4,1361.7z"/>
		<path class="st1" d="M-5199.7,1366c-2.8-2.8-6.8-4.2-12-4.2h-26.6l-121.8-343.2c-5.2-14.6-14.2-21.9-27.3-21.9h-222.2
			c-5.2,0-9.3,1.3-12.3,4c-3,2.7-4.5,5.8-4.5,9.4c0,3.4,1.5,6.3,4.4,8.7c2.9,2.5,7,3.7,12.1,3.7h29.9c4.3,0,6.4,0.7,6.4,2
			c0,0.7-0.8,1.8-2.4,3.4l-193.8,175v-177h64.9c5.2,0,9.1-1.4,12-4.2c2.8-2.8,4.2-6.1,4.2-9.9c0-4-1.5-7.6-4.5-10.6
			c-3-3-7.1-4.5-12.3-4.5h-149.7c-5.4,0-9.6,1.5-12.6,4.4c-3,2.9-4.5,6.4-4.5,10.4c0,4,1.5,7.5,4.4,10.3c2.9,2.8,7.1,4.2,12.4,4.2
			h53.5v335.8h-53.5c-5.2,0-9.3,1.5-12.3,4.4c-3,2.9-4.5,6.3-4.5,10.1c0,4,1.5,7.5,4.5,10.3s7.2,4.2,12.6,4.2h168.6
			c5.4,0,9.5-1.4,12.4-4.2c2.9-2.8,4.4-6.2,4.4-10.3c0-3.8-1.5-7.2-4.4-10.1c-2.9-2.9-7-4.4-12.1-4.4h-82.1v-127.5l62.3-52.5
			l160.7,179.9l0.1,0.2h-55.9c-5.2,0-9.2,1.5-12.1,4.4c-2.9,2.9-4.4,6.3-4.4,10.1c0,4,1.5,7.5,4.4,10.3c2.9,2.8,7.1,4.2,12.4,4.2
			h144.2c5.4,0,9.6-1.4,12.6-4.2c3-2.8,4.5-6.2,4.5-10.3c0-3.8-1.5-7.2-4.5-10.1c-3-2.9-7.1-4.4-12.3-4.4h-53.5l1.1-3.1l36.5-99.9
			h162.5l36,103h-62.6c-5.2,0-9.2,1.4-12.1,4.2c-2.9,2.8-4.4,6.1-4.4,9.9c0,4,1.5,7.5,4.5,10.4c3,2.9,7.2,4.4,12.6,4.4h123.2
			c5.2,0,9.3-1.5,12.3-4.4c3-2.9,4.5-6.4,4.5-10.4C-5195.5,1372.1-5196.9,1368.8-5199.7,1366z M-5533.4,1330.6l-147.8-167.3
			l147.4-137.3h46.4c1.5,0,2.8-0.1,4.1-0.3h67.4L-5533.4,1330.6z M-5461,1230.9l74.4-200.9l67,200.9H-5461z"/>
	</g>
	<g>
		<path d="M-5531.6,1349.7l-1.1,3.1h3.9L-5531.6,1349.7z"/>
		<path d="M-5568.4,1352.7l-0.1,0.2h0.2L-5568.4,1352.7z"/>
		<path d="M-5222.7,1357c-2.8-2.8-6.8-4.2-12-4.2h-26.6l-121.8-343.2c-5.2-14.6-14.2-21.9-27.3-21.9h-222.2c-5.2,0-9.3,1.3-12.3,4
			c-3,2.7-4.5,5.8-4.5,9.4c0,3.4,1.5,6.3,4.4,8.7c2.9,2.5,7,3.7,12.1,3.7h29.9c4.3,0,6.4,0.7,6.4,2c0,0.7-0.8,1.8-2.4,3.4
			l-193.8,175v-177h64.9c5.2,0,9.1-1.4,12-4.2c2.8-2.8,4.2-6.1,4.2-9.9c0-4-1.5-7.6-4.5-10.6c-3-3-7.1-4.5-12.3-4.5h-149.7
			c-5.4,0-9.6,1.5-12.6,4.4c-3,2.9-4.5,6.4-4.5,10.4c0,4,1.5,7.5,4.4,10.3c2.9,2.8,7.1,4.2,12.4,4.2h53.5v335.8h-53.5
			c-5.2,0-9.3,1.5-12.3,4.4c-3,2.9-4.5,6.3-4.5,10.1c0,4,1.5,7.5,4.5,10.3s7.2,4.2,12.6,4.2h168.6c5.4,0,9.5-1.4,12.4-4.2
			c2.9-2.8,4.4-6.2,4.4-10.3c0-3.8-1.5-7.2-4.4-10.1c-2.9-2.9-7-4.4-12.1-4.4h-82.1v-127.5l62.3-52.5l160.7,179.9l0.1,0.2h-55.9
			c-5.2,0-9.2,1.5-12.1,4.4c-2.9,2.9-4.4,6.3-4.4,10.1c0,4,1.5,7.5,4.4,10.3c2.9,2.8,7.1,4.2,12.4,4.2h144.2c5.4,0,9.6-1.4,12.6-4.2
			c3-2.8,4.5-6.2,4.5-10.3c0-3.8-1.5-7.2-4.5-10.1c-3-2.9-7.1-4.4-12.3-4.4h-53.5l1.1-3.1l36.5-99.9h162.5l36,103h-62.6
			c-5.2,0-9.2,1.4-12.1,4.2c-2.9,2.8-4.4,6.1-4.4,9.9c0,4,1.5,7.5,4.5,10.4c3,2.9,7.2,4.4,12.6,4.4h123.2c5.2,0,9.3-1.5,12.3-4.4
			c3-2.9,4.5-6.4,4.5-10.4C-5218.5,1363.1-5219.9,1359.8-5222.7,1357z M-5556.4,1321.6l-147.8-167.3l147.4-137.3h46.4
			c1.5,0,2.8-0.1,4.1-0.3h67.4L-5556.4,1321.6z M-5484,1221.9l74.4-200.9l67,200.9H-5484z"/>
	</g>
</g>
<path d="M-6416.4,1613.8h-749.2c-27.5,0-50-22.5-50-50V814.6c0-27.5,22.5-50,50-50h749.2c27.5,0,50,22.5,50,50v749.2
	C-6366.4,1591.3-6388.9,1613.8-6416.4,1613.8z"/>
<g>
	<path class="st1" d="M-6754.2,1358.7l-1.1,3.1h3.9L-6754.2,1358.7z"/>
	<path class="st1" d="M-6790.9,1361.7l-0.1,0.2h0.2L-6790.9,1361.7z"/>
	<path class="st1" d="M-6445.2,1366c-2.8-2.8-6.8-4.2-12-4.2h-26.6l-121.8-343.2c-5.2-14.6-14.2-21.9-27.3-21.9h-222.2
		c-5.2,0-9.3,1.3-12.3,4c-3,2.7-4.5,5.8-4.5,9.4c0,3.4,1.5,6.3,4.4,8.7c2.9,2.5,7,3.7,12.1,3.7h29.9c4.3,0,6.4,0.7,6.4,2
		c0,0.7-0.8,1.8-2.4,3.4l-193.8,175v-177h64.9c5.2,0,9.1-1.4,12-4.2c2.8-2.8,4.2-6.1,4.2-9.9c0-4-1.5-7.6-4.5-10.6
		c-3-3-7.1-4.5-12.3-4.5h-149.7c-5.4,0-9.6,1.5-12.6,4.4c-3,2.9-4.5,6.4-4.5,10.4c0,4,1.5,7.5,4.4,10.3c2.9,2.8,7.1,4.2,12.4,4.2
		h53.5v335.8h-53.5c-5.2,0-9.3,1.5-12.3,4.4c-3,2.9-4.5,6.3-4.5,10.1c0,4,1.5,7.5,4.5,10.3c3,2.8,7.2,4.2,12.6,4.2h168.6
		c5.4,0,9.5-1.4,12.4-4.2c2.9-2.8,4.4-6.2,4.4-10.3c0-3.8-1.5-7.2-4.4-10.1c-2.9-2.9-7-4.4-12.1-4.4h-82.1v-127.5l62.3-52.5
		l160.7,179.9l0.1,0.2h-55.9c-5.2,0-9.2,1.5-12.1,4.4c-2.9,2.9-4.4,6.3-4.4,10.1c0,4,1.5,7.5,4.4,10.3c2.9,2.8,7.1,4.2,12.4,4.2
		h144.2c5.4,0,9.6-1.4,12.6-4.2c3-2.8,4.5-6.2,4.5-10.3c0-3.8-1.5-7.2-4.5-10.1c-3-2.9-7.1-4.4-12.3-4.4h-53.5l1.1-3.1l36.5-99.9
		h162.5l36,103h-62.6c-5.2,0-9.2,1.4-12.1,4.2c-2.9,2.8-4.4,6.1-4.4,9.9c0,4,1.5,7.5,4.5,10.4c3,2.9,7.2,4.4,12.6,4.4h123.2
		c5.2,0,9.3-1.5,12.3-4.4c3-2.9,4.5-6.4,4.5-10.4C-6441,1372.1-6442.4,1368.8-6445.2,1366z M-6779,1330.6l-147.8-167.3l147.4-137.3
		h46.4c1.5,0,2.8-0.1,4.1-0.3h67.4L-6779,1330.6z M-6706.5,1230.9l74.4-200.9l67,200.9H-6706.5z"/>
</g>
<g>
	<path d="M-6777.2,1349.7l-1.1,3.1h3.9L-6777.2,1349.7z"/>
	<path d="M-6813.9,1352.7l-0.1,0.2h0.2L-6813.9,1352.7z"/>
	<path d="M-6468.2,1357c-2.8-2.8-6.8-4.2-12-4.2h-26.6l-121.8-343.2c-5.2-14.6-14.2-21.9-27.3-21.9h-222.2c-5.2,0-9.3,1.3-12.3,4
		c-3,2.7-4.5,5.8-4.5,9.4c0,3.4,1.5,6.3,4.4,8.7c2.9,2.5,7,3.7,12.1,3.7h29.9c4.3,0,6.4,0.7,6.4,2c0,0.7-0.8,1.8-2.4,3.4l-193.8,175
		v-177h64.9c5.2,0,9.1-1.4,12-4.2c2.8-2.8,4.2-6.1,4.2-9.9c0-4-1.5-7.6-4.5-10.6c-3-3-7.1-4.5-12.3-4.5h-149.7
		c-5.4,0-9.6,1.5-12.6,4.4c-3,2.9-4.5,6.4-4.5,10.4c0,4,1.5,7.5,4.4,10.3c2.9,2.8,7.1,4.2,12.4,4.2h53.5v335.8h-53.5
		c-5.2,0-9.3,1.5-12.3,4.4c-3,2.9-4.5,6.3-4.5,10.1c0,4,1.5,7.5,4.5,10.3c3,2.8,7.2,4.2,12.6,4.2h168.6c5.4,0,9.5-1.4,12.4-4.2
		c2.9-2.8,4.4-6.2,4.4-10.3c0-3.8-1.5-7.2-4.4-10.1c-2.9-2.9-7-4.4-12.1-4.4h-82.1v-127.5l62.3-52.5l160.7,179.9l0.1,0.2h-55.9
		c-5.2,0-9.2,1.5-12.1,4.4c-2.9,2.9-4.4,6.3-4.4,10.1c0,4,1.5,7.5,4.4,10.3c2.9,2.8,7.1,4.2,12.4,4.2h144.2c5.4,0,9.6-1.4,12.6-4.2
		c3-2.8,4.5-6.2,4.5-10.3c0-3.8-1.5-7.2-4.5-10.1c-3-2.9-7.1-4.4-12.3-4.4h-53.5l1.1-3.1l36.5-99.9h162.5l36,103h-62.6
		c-5.2,0-9.2,1.4-12.1,4.2c-2.9,2.8-4.4,6.1-4.4,9.9c0,4,1.5,7.5,4.5,10.4c3,2.9,7.2,4.4,12.6,4.4h123.2c5.2,0,9.3-1.5,12.3-4.4
		c3-2.9,4.5-6.4,4.5-10.4C-6464,1363.1-6465.4,1359.8-6468.2,1357z M-6802,1321.6l-147.8-167.3l147.4-137.3h46.4
		c1.5,0,2.8-0.1,4.1-0.3h67.4L-6802,1321.6z M-6729.5,1221.9l74.4-200.9l67,200.9H-6729.5z"/>
</g>
<g>
	<path class="st2" d="M-6416.4,2741.1h-749.2c-27.5,0-50-22.5-50-50V1942c0-27.5,22.5-50,50-50h749.2c27.5,0,50,22.5,50,50v749.2
		C-6366.4,2718.6-6388.9,2741.1-6416.4,2741.1z"/>
	<g>
		<g>
			<path d="M-6754.2,2486l-1.1,3.1h3.9L-6754.2,2486z"/>
			<path d="M-6790.9,2489l-0.1,0.2h0.2L-6790.9,2489z"/>
			<path d="M-6445.2,2493.3c-2.8-2.8-6.8-4.2-12-4.2h-26.6l-121.8-343.2c-5.2-14.6-14.2-21.9-27.3-21.9h-222.2
				c-5.2,0-9.3,1.3-12.3,4c-3,2.7-4.5,5.8-4.5,9.4c0,3.4,1.5,6.3,4.4,8.7c2.9,2.5,7,3.7,12.1,3.7h29.9c4.3,0,6.4,0.7,6.4,2
				c0,0.7-0.8,1.8-2.4,3.4l-193.8,175v-177h64.9c5.2,0,9.1-1.4,12-4.2c2.8-2.8,4.2-6.1,4.2-9.9c0-4-1.5-7.6-4.5-10.6
				c-3-3-7.1-4.5-12.3-4.5h-149.7c-5.4,0-9.6,1.5-12.6,4.4c-3,2.9-4.5,6.4-4.5,10.4c0,4,1.5,7.5,4.4,10.3c2.9,2.8,7.1,4.2,12.4,4.2
				h53.5v335.8h-53.5c-5.2,0-9.3,1.5-12.3,4.4c-3,2.9-4.5,6.3-4.5,10.1c0,4,1.5,7.5,4.5,10.3c3,2.8,7.2,4.2,12.6,4.2h168.6
				c5.4,0,9.5-1.4,12.4-4.2c2.9-2.8,4.4-6.2,4.4-10.3c0-3.8-1.5-7.2-4.4-10.1c-2.9-2.9-7-4.4-12.1-4.4h-82.1v-127.5l62.3-52.5
				l160.7,179.9l0.1,0.2h-55.9c-5.2,0-9.2,1.5-12.1,4.4c-2.9,2.9-4.4,6.3-4.4,10.1c0,4,1.5,7.5,4.4,10.3c2.9,2.8,7.1,4.2,12.4,4.2
				h144.2c5.4,0,9.6-1.4,12.6-4.2c3-2.8,4.5-6.2,4.5-10.3c0-3.8-1.5-7.2-4.5-10.1c-3-2.9-7.1-4.4-12.3-4.4h-53.5l1.1-3.1l36.5-99.9
				h162.5l36,103h-62.6c-5.2,0-9.2,1.4-12.1,4.2c-2.9,2.8-4.4,6.1-4.4,9.9c0,4,1.5,7.5,4.5,10.4c3,2.9,7.2,4.4,12.6,4.4h123.2
				c5.2,0,9.3-1.5,12.3-4.4c3-2.9,4.5-6.4,4.5-10.4C-6441,2499.5-6442.4,2496.2-6445.2,2493.3z M-6779,2457.9l-147.8-167.3
				l147.4-137.3h46.4c1.5,0,2.8-0.1,4.1-0.3h67.4L-6779,2457.9z M-6706.5,2358.2l74.4-200.9l67,200.9H-6706.5z"/>
		</g>
		<g>
			<path class="st1" d="M-6777.2,2477l-1.1,3.1h3.9L-6777.2,2477z"/>
			<path class="st1" d="M-6813.9,2480l-0.1,0.2h0.2L-6813.9,2480z"/>
			<path class="st1" d="M-6468.2,2484.3c-2.8-2.8-6.8-4.2-12-4.2h-26.6l-121.8-343.2c-5.2-14.6-14.2-21.9-27.3-21.9h-222.2
				c-5.2,0-9.3,1.3-12.3,4c-3,2.7-4.5,5.8-4.5,9.4c0,3.4,1.5,6.3,4.4,8.7c2.9,2.5,7,3.7,12.1,3.7h29.9c4.3,0,6.4,0.7,6.4,2
				c0,0.7-0.8,1.8-2.4,3.4l-193.8,175v-177h64.9c5.2,0,9.1-1.4,12-4.2c2.8-2.8,4.2-6.1,4.2-9.9c0-4-1.5-7.6-4.5-10.6
				c-3-3-7.1-4.5-12.3-4.5h-149.7c-5.4,0-9.6,1.5-12.6,4.4c-3,2.9-4.5,6.4-4.5,10.4c0,4,1.5,7.5,4.4,10.3c2.9,2.8,7.1,4.2,12.4,4.2
				h53.5v335.8h-53.5c-5.2,0-9.3,1.5-12.3,4.4c-3,2.9-4.5,6.3-4.5,10.1c0,4,1.5,7.5,4.5,10.3c3,2.8,7.2,4.2,12.6,4.2h168.6
				c5.4,0,9.5-1.4,12.4-4.2c2.9-2.8,4.4-6.2,4.4-10.3c0-3.8-1.5-7.2-4.4-10.1c-2.9-2.9-7-4.4-12.1-4.4h-82.1v-127.5l62.3-52.5
				l160.7,179.9l0.1,0.2h-55.9c-5.2,0-9.2,1.5-12.1,4.4c-2.9,2.9-4.4,6.3-4.4,10.1c0,4,1.5,7.5,4.4,10.3c2.9,2.8,7.1,4.2,12.4,4.2
				h144.2c5.4,0,9.6-1.4,12.6-4.2c3-2.8,4.5-6.2,4.5-10.3c0-3.8-1.5-7.2-4.5-10.1c-3-2.9-7.1-4.4-12.3-4.4h-53.5l1.1-3.1l36.5-99.9
				h162.5l36,103h-62.6c-5.2,0-9.2,1.4-12.1,4.2c-2.9,2.8-4.4,6.1-4.4,9.9c0,4,1.5,7.5,4.5,10.4c3,2.9,7.2,4.4,12.6,4.4h123.2
				c5.2,0,9.3-1.5,12.3-4.4c3-2.9,4.5-6.4,4.5-10.4C-6464,2490.5-6465.4,2487.2-6468.2,2484.3z M-6802,2448.9l-147.8-167.3
				l147.4-137.3h46.4c1.5,0,2.8-0.1,4.1-0.3h67.4L-6802,2448.9z M-6729.5,2349.2l74.4-200.9l67,200.9H-6729.5z"/>
		</g>
	</g>
</g>
<circle cx="-8399.9" cy="1593" r="299"/>
<circle class="st0" cx="-8171.6" cy="3542.7" r="476.1"/>
<g>
	<path class="st1" d="M-8382.9,1704.3l-0.8,2.1h2.6L-8382.9,1704.3z"/>
	<path class="st1" d="M-8407.7,1706.3l0,0.1h0.1L-8407.7,1706.3z"/>
	<path class="st1" d="M-8174.4,1709.2c-1.9-1.9-4.6-2.8-8.1-2.8h-17.9l-82.2-231.6c-3.5-9.8-9.6-14.8-18.4-14.8h-149.9
		c-3.5,0-6.2,0.9-8.3,2.7c-2,1.8-3.1,3.9-3.1,6.4c0,2.3,1,4.2,3,5.9c2,1.7,4.7,2.5,8.2,2.5h20.2c2.9,0,4.3,0.5,4.3,1.4
		c0,0.5-0.5,1.2-1.6,2.3l-130.8,118.1v-119.4h43.8c3.5,0,6.2-0.9,8.1-2.8c1.9-1.9,2.8-4.1,2.8-6.7c0-2.7-1-5.1-3.1-7.2
		c-2-2-4.8-3.1-8.3-3.1h-101c-3.6,0-6.5,1-8.5,3c-2,2-3.1,4.3-3.1,7c0,2.7,1,5,3,6.9c2,1.9,4.8,2.8,8.4,2.8h36.1v226.6h-36.1
		c-3.5,0-6.2,1-8.3,2.9c-2,2-3.1,4.2-3.1,6.8c0,2.7,1,5,3.1,6.9c2,1.9,4.9,2.8,8.5,2.8h113.7c3.6,0,6.4-0.9,8.4-2.8
		c2-1.9,3-4.2,3-6.9c0-2.6-1-4.8-3-6.8c-2-2-4.7-2.9-8.2-2.9h-55.4v-86.1l42-35.4l108.4,121.4l0.1,0.1h-37.7c-3.5,0-6.2,1-8.2,2.9
		c-2,2-3,4.2-3,6.8c0,2.7,1,5,3,6.9c2,1.9,4.8,2.8,8.4,2.8h97.3c3.6,0,6.5-0.9,8.5-2.8c2-1.9,3.1-4.2,3.1-6.9c0-2.6-1-4.8-3.1-6.8
		c-2-2-4.8-2.9-8.3-2.9h-36.1l0.8-2.1l24.7-67.4h109.7l24.3,69.5h-42.2c-3.5,0-6.2,0.9-8.2,2.8c-2,1.9-3,4.1-3,6.7
		c0,2.7,1,5.1,3.1,7c2,2,4.9,2.9,8.5,2.9h83.1c3.5,0,6.2-1,8.3-2.9c2-2,3.1-4.3,3.1-7C-8171.6,1713.4-8172.5,1711.1-8174.4,1709.2z
		 M-8399.6,1685.4l-99.7-112.9l99.4-92.6h31.3c1,0,1.9-0.1,2.7-0.2h45.5L-8399.6,1685.4z M-8350.7,1618.1l50.2-135.6l45.2,135.6
		H-8350.7z"/>
</g>
<path class="st0" d="M-3855.1,2850.7l-698.7-270.2c-25.6-9.9-38.5-39-28.6-64.7l270.2-698.7c9.9-25.6,39-38.5,64.7-28.6l698.7,270.2
	c25.6,9.9,38.5,39,28.6,64.7l-270.2,698.7C-3800.3,2847.7-3829.4,2860.6-3855.1,2850.7z"/>
<g>
	<path d="M-4026,2484.5l-1.1,3.1h3.9L-4026,2484.5z"/>
	<path d="M-4062.8,2487.5l-0.1,0.2h0.2L-4062.8,2487.5z"/>
	<path d="M-3717.1,2491.8c-2.8-2.8-6.8-4.2-12-4.2h-26.6l-121.8-343.2c-5.2-14.6-14.2-21.9-27.3-21.9h-222.2c-5.2,0-9.3,1.3-12.3,4
		c-3,2.7-4.5,5.8-4.5,9.4c0,3.4,1.5,6.3,4.4,8.7c2.9,2.5,7,3.7,12.1,3.7h29.9c4.3,0,6.4,0.7,6.4,2c0,0.7-0.8,1.8-2.4,3.4l-193.8,175
		v-177h64.9c5.2,0,9.1-1.4,12-4.2c2.8-2.8,4.2-6.1,4.2-9.9c0-4-1.5-7.6-4.5-10.6c-3-3-7.1-4.5-12.3-4.5h-149.7
		c-5.4,0-9.6,1.5-12.6,4.4c-3,2.9-4.5,6.4-4.5,10.4c0,4,1.5,7.5,4.4,10.3c2.9,2.8,7.1,4.2,12.4,4.2h53.5v335.8h-53.5
		c-5.2,0-9.3,1.5-12.3,4.4c-3,2.9-4.5,6.3-4.5,10.1c0,4,1.5,7.5,4.5,10.3s7.2,4.2,12.6,4.2h168.6c5.4,0,9.5-1.4,12.4-4.2
		c2.9-2.8,4.4-6.2,4.4-10.3c0-3.8-1.5-7.2-4.4-10.1c-2.9-2.9-7-4.4-12.1-4.4h-82.1v-127.5l62.3-52.5l160.7,179.9l0.1,0.2h-55.9
		c-5.2,0-9.2,1.5-12.1,4.4c-2.9,2.9-4.4,6.3-4.4,10.1c0,4,1.5,7.5,4.4,10.3c2.9,2.8,7.1,4.2,12.4,4.2h144.2c5.4,0,9.6-1.4,12.6-4.2
		s4.5-6.2,4.5-10.3c0-3.8-1.5-7.2-4.5-10.1c-3-2.9-7.1-4.4-12.3-4.4h-53.5l1.1-3.1l36.5-99.9h162.5l36,103h-62.6
		c-5.2,0-9.2,1.4-12.1,4.2c-2.9,2.8-4.4,6.1-4.4,9.9c0,4,1.5,7.5,4.5,10.4c3,2.9,7.2,4.4,12.6,4.4h123.2c5.2,0,9.3-1.5,12.3-4.4
		c3-2.9,4.5-6.4,4.5-10.4C-3712.9,2498-3714.3,2494.7-3717.1,2491.8z M-4050.8,2456.4l-147.8-167.3l147.4-137.3h46.4
		c1.5,0,2.8-0.1,4.1-0.3h67.4L-4050.8,2456.4z M-3978.4,2356.7l74.4-200.9l67,200.9H-3978.4z"/>
</g>
<path d="M-3855.1,1722.6l-698.7-270.2c-25.6-9.9-38.5-39-28.6-64.7l270.2-698.7c9.9-25.6,39-38.5,64.7-28.6l698.7,270.2
	c25.6,9.9,38.5,39,28.6,64.7l-270.2,698.7C-3800.3,1719.6-3829.4,1732.5-3855.1,1722.6z"/>
<g>
	<path class="st1" d="M-4026,1356.4l-1.1,3.1h3.9L-4026,1356.4z"/>
	<path class="st1" d="M-4062.8,1359.4l-0.1,0.2h0.2L-4062.8,1359.4z"/>
	<path class="st1" d="M-3717.1,1363.8c-2.8-2.8-6.8-4.2-12-4.2h-26.6l-121.8-343.2c-5.2-14.6-14.2-21.9-27.3-21.9h-222.2
		c-5.2,0-9.3,1.3-12.3,4c-3,2.7-4.5,5.8-4.5,9.4c0,3.4,1.5,6.3,4.4,8.7c2.9,2.5,7,3.7,12.1,3.7h29.9c4.3,0,6.4,0.7,6.4,2
		c0,0.7-0.8,1.8-2.4,3.4l-193.8,175v-177h64.9c5.2,0,9.1-1.4,12-4.2c2.8-2.8,4.2-6.1,4.2-9.9c0-4-1.5-7.6-4.5-10.6
		c-3-3-7.1-4.5-12.3-4.5h-149.7c-5.4,0-9.6,1.5-12.6,4.4c-3,2.9-4.5,6.4-4.5,10.4c0,4,1.5,7.5,4.4,10.3c2.9,2.8,7.1,4.2,12.4,4.2
		h53.5v335.8h-53.5c-5.2,0-9.3,1.5-12.3,4.4c-3,2.9-4.5,6.3-4.5,10.1c0,4,1.5,7.5,4.5,10.3s7.2,4.2,12.6,4.2h168.6
		c5.4,0,9.5-1.4,12.4-4.2c2.9-2.8,4.4-6.2,4.4-10.3c0-3.8-1.5-7.2-4.4-10.1c-2.9-2.9-7-4.4-12.1-4.4h-82.1V1232l62.3-52.5
		l160.7,179.9l0.1,0.2h-55.9c-5.2,0-9.2,1.5-12.1,4.4c-2.9,2.9-4.4,6.3-4.4,10.1c0,4,1.5,7.5,4.4,10.3c2.9,2.8,7.1,4.2,12.4,4.2
		h144.2c5.4,0,9.6-1.4,12.6-4.2s4.5-6.2,4.5-10.3c0-3.8-1.5-7.2-4.5-10.1c-3-2.9-7.1-4.4-12.3-4.4h-53.5l1.1-3.1l36.5-99.9h162.5
		l36,103h-62.6c-5.2,0-9.2,1.4-12.1,4.2c-2.9,2.8-4.4,6.1-4.4,9.9c0,4,1.5,7.5,4.5,10.4c3,2.9,7.2,4.4,12.6,4.4h123.2
		c5.2,0,9.3-1.5,12.3-4.4c3-2.9,4.5-6.4,4.5-10.4C-3712.9,1369.9-3714.3,1366.6-3717.1,1363.8z M-4050.8,1328.4l-147.8-167.3
		l147.4-137.3h46.4c1.5,0,2.8-0.1,4.1-0.3h67.4L-4050.8,1328.4z M-3978.4,1228.7l74.4-200.9l67,200.9H-3978.4z"/>
</g>
<path class="st0" d="M-7723.5,2920l-698.7-270.2c-25.6-9.9-38.5-39-28.6-64.7l270.2-698.7c9.9-25.6,39-38.5,64.7-28.6l698.7,270.2
	c25.6,9.9,38.5,39,28.6,64.7l-270.2,698.7C-7668.7,2917-7697.8,2929.9-7723.5,2920z"/>
<g>
	<path d="M-7894.4,2553.8l-1.1,3.1h3.9L-7894.4,2553.8z"/>
	<path d="M-7931.2,2556.8l-0.1,0.2h0.2L-7931.2,2556.8z"/>
	<path d="M-7585.5,2561.2c-2.8-2.8-6.8-4.2-12-4.2h-26.6l-121.8-343.2c-5.2-14.6-14.2-21.9-27.2-21.9h-222.2c-5.2,0-9.3,1.3-12.3,4
		c-3,2.7-4.5,5.8-4.5,9.4c0,3.4,1.5,6.3,4.4,8.7c2.9,2.5,7,3.7,12.1,3.7h29.9c4.3,0,6.4,0.7,6.4,2c0,0.7-0.8,1.8-2.4,3.4l-193.8,175
		v-177h64.9c5.2,0,9.1-1.4,12-4.2c2.8-2.8,4.2-6.1,4.2-9.9c0-4-1.5-7.6-4.5-10.6c-3-3-7.1-4.5-12.3-4.5h-149.7
		c-5.4,0-9.6,1.5-12.6,4.4c-3,2.9-4.5,6.4-4.5,10.4c0,4,1.5,7.5,4.4,10.3c2.9,2.8,7.1,4.2,12.4,4.2h53.5V2557h-53.5
		c-5.2,0-9.3,1.5-12.3,4.4c-3,2.9-4.5,6.3-4.5,10.1c0,4,1.5,7.5,4.5,10.3c3,2.8,7.2,4.2,12.6,4.2h168.6c5.4,0,9.5-1.4,12.4-4.2
		c2.9-2.8,4.4-6.2,4.4-10.3c0-3.8-1.5-7.2-4.4-10.1c-2.9-2.9-7-4.4-12.1-4.4h-82.1v-127.5l62.3-52.5l160.7,179.9l0.1,0.2h-55.9
		c-5.2,0-9.2,1.5-12.1,4.4c-2.9,2.9-4.4,6.3-4.4,10.1c0,4,1.5,7.5,4.4,10.3c2.9,2.8,7.1,4.2,12.4,4.2h144.2c5.4,0,9.6-1.4,12.6-4.2
		c3-2.8,4.5-6.2,4.5-10.3c0-3.8-1.5-7.2-4.5-10.1c-3-2.9-7.1-4.4-12.3-4.4h-53.5l1.1-3.1l36.5-99.9h162.5l36,103h-62.6
		c-5.2,0-9.2,1.4-12.1,4.2c-2.9,2.8-4.4,6.1-4.4,9.9c0,4,1.5,7.5,4.5,10.4c3,2.9,7.2,4.4,12.6,4.4h123.2c5.2,0,9.3-1.5,12.3-4.4
		s4.5-6.4,4.5-10.4C-7581.3,2567.3-7582.7,2564-7585.5,2561.2z M-7919.2,2525.8l-147.8-167.3l147.4-137.3h46.4
		c1.5,0,2.8-0.1,4.1-0.3h67.4L-7919.2,2525.8z M-7846.8,2426.1l74.4-200.9l67,200.9H-7846.8z"/>
</g>
<line class="st0" x1="-7773.1" y1="2191.8" x2="-8050.5" y2="2909.3"/>
<g>
	<path class="st1" d="M-6839.5,3634.1h-208.4c-6.7,0-11.9-1.7-15.6-5.2c-3.7-3.5-5.6-7.7-5.6-12.7c0-4.7,1.9-8.9,5.6-12.5
		c3.7-3.6,8.8-5.4,15.2-5.4h66.1v-415.1h-66.1c-6.7,0-11.8-1.7-15.4-5.2c-3.6-3.5-5.4-7.7-5.4-12.7c0-5,1.9-9.3,5.6-12.9
		c3.7-3.6,8.9-5.4,15.6-5.4h185.1c6.4,0,11.4,1.9,15.2,5.6c3.7,3.7,5.6,8.1,5.6,13.1c0,4.7-1.7,8.8-5.2,12.3
		c-3.5,3.5-8.4,5.2-14.8,5.2h-80.3V3402l239.6-216.3c1.9-1.9,2.9-3.3,2.9-4.2c0-1.7-2.6-2.5-7.9-2.5h-37c-6.4,0-11.4-1.5-15-4.6
		c-3.6-3-5.4-6.7-5.4-10.8c0-4.4,1.9-8.3,5.6-11.6c3.7-3.3,8.8-5,15.2-5h150.6c6.4,0,11.4,1.8,15,5.4c3.6,3.6,5.4,7.9,5.4,12.9
		c0,5-1.7,9.2-5.2,12.7c-3.5,3.5-8.4,5.2-14.8,5.2h-57.4l-182.2,169.7l216.7,245.4h57c6.4,0,11.3,1.8,14.8,5.4
		c3.5,3.6,5.2,7.8,5.2,12.5c0,5-1.8,9.2-5.4,12.7c-3.6,3.5-8.6,5.2-15,5.2h-173.8c-6.7,0-11.8-1.7-15.4-5.2
		c-3.6-3.5-5.4-7.7-5.4-12.7c0-4.7,1.8-8.9,5.4-12.5c3.6-3.6,8.6-5.4,15-5.4h69l-198.8-222.5l-76.9,64.9v157.6h101.5
		c6.4,0,11.4,1.8,15,5.4c3.6,3.6,5.4,7.8,5.4,12.5c0,5-1.8,9.2-5.4,12.7C-6827.7,3632.4-6832.9,3634.1-6839.5,3634.1z"/>
</g>
<path d="M804.2,5H55C27.5,5,5,27.5,5,55v749.2c0,27.5,22.5,50,50,50h749.2c27.5,0,50-22.5,50-50V55C854.2,27.5,831.7,5,804.2,5z
	 M689.1,667.9c-3.6,3.5-8.6,5.2-15,5.2H500.3c-6.6,0-11.8-1.7-15.4-5.2c-3.6-3.5-5.4-7.7-5.4-12.7c0-4.7,1.8-8.9,5.4-12.5
	s8.6-5.4,15-5.4h69L370.1,414.8l-76.9,64.9v157.6h101.5c6.4,0,11.4,1.8,15,5.4c3.6,3.6,5.4,7.8,5.4,12.5c0,5-1.8,9.2-5.4,12.7
	c-3.6,3.5-8.7,5.2-15.4,5.2H185.9c-6.6,0-11.9-1.7-15.6-5.2c-3.8-3.5-5.6-7.7-5.6-12.7c0-4.7,1.9-8.9,5.6-12.5
	c3.7-3.6,8.8-5.4,15.2-5.4h66.1V222.3h-66.1c-6.7,0-11.8-1.7-15.4-5.2c-3.6-3.5-5.4-7.7-5.4-12.7s1.9-9.3,5.6-12.9
	c3.7-3.6,8.9-5.4,15.6-5.4h185.1c6.4,0,11.4,1.9,15.2,5.6c3.7,3.7,5.6,8.1,5.6,13.1c0,4.7-1.7,8.8-5.2,12.3
	c-3.5,3.5-8.4,5.2-14.8,5.2h-80.3V441l239.6-216.3c1.9-1.9,2.9-3.3,2.9-4.2c0-1.7-2.6-2.5-7.9-2.5h-37c-6.4,0-11.4-1.5-15-4.6
	c-3.6-3-5.4-6.6-5.4-10.8c0-4.4,1.9-8.3,5.6-11.7c3.7-3.3,8.8-5,15.2-5H640c6.4,0,11.4,1.8,15,5.4c3.6,3.6,5.4,7.9,5.4,12.9
	s-1.7,9.2-5.2,12.7c-3.5,3.5-8.4,5.2-14.8,5.2H583L400.9,391.9l216.7,245.4h57c6.4,0,11.3,1.8,14.8,5.4c3.5,3.6,5.2,7.8,5.2,12.5
	C694.5,660.2,692.7,664.4,689.1,667.9z"/>
<g>
	<text transform="matrix(1 0 0 1 965.0009 545.001)" style="font-family:'MyriadPro-Regular'; font-size:12px;">/Users/k/Codes/kehindeayanleye.github.io/images/logo.svg</text>
</g>
<g>
	<path class="st2" d="M-4192.4,3812.7h-749.2c-27.5,0-50-22.5-50-50v-749.2c0-27.5,22.5-50,50-50h749.2c27.5,0,50,22.5,50,50v749.2
		C-4142.4,3790.2-4164.9,3812.7-4192.4,3812.7z"/>
	<g>
		<g>
			<path d="M-4592.4,3636.6h-208.4c-6.7,0-11.9-1.7-15.6-5.2c-3.7-3.5-5.6-7.7-5.6-12.7c0-4.7,1.9-8.9,5.6-12.5
				c3.7-3.6,8.8-5.4,15.2-5.4h66.1v-415.1h-66.1c-6.7,0-11.8-1.7-15.4-5.2c-3.6-3.5-5.4-7.7-5.4-12.7c0-5,1.9-9.3,5.6-12.9
				c3.7-3.6,8.9-5.4,15.6-5.4h185.1c6.4,0,11.4,1.9,15.2,5.6c3.7,3.7,5.6,8.1,5.6,13.1c0,4.7-1.7,8.8-5.2,12.3
				c-3.5,3.5-8.4,5.2-14.8,5.2h-80.3v218.8l239.6-216.3c1.9-1.9,2.9-3.3,2.9-4.2c0-1.7-2.6-2.5-7.9-2.5h-37c-6.4,0-11.4-1.5-15-4.6
				c-3.6-3-5.4-6.7-5.4-10.8c0-4.4,1.9-8.3,5.6-11.6c3.7-3.3,8.8-5,15.2-5h150.6c6.4,0,11.4,1.8,15,5.4c3.6,3.6,5.4,7.9,5.4,12.9
				c0,5-1.7,9.2-5.2,12.7c-3.5,3.5-8.4,5.2-14.8,5.2h-57.4l-182.2,169.7l216.7,245.4h57c6.4,0,11.3,1.8,14.8,5.4
				c3.5,3.6,5.2,7.8,5.2,12.5c0,5-1.8,9.2-5.4,12.7c-3.6,3.5-8.6,5.2-15,5.2h-173.8c-6.7,0-11.8-1.7-15.4-5.2
				c-3.6-3.5-5.4-7.7-5.4-12.7c0-4.7,1.8-8.9,5.4-12.5c3.6-3.6,8.6-5.4,15-5.4h69l-198.8-222.5l-76.9,64.9v157.6h101.5
				c6.4,0,11.4,1.8,15,5.4c3.6,3.6,5.4,7.8,5.4,12.5c0,5-1.8,9.2-5.4,12.7C-4580.6,3634.9-4585.7,3636.6-4592.4,3636.6z"/>
		</g>
		<g>
			<path class="st1" d="M-4612.4,3626.6h-208.4c-6.7,0-11.9-1.7-15.6-5.2c-3.7-3.5-5.6-7.7-5.6-12.7c0-4.7,1.9-8.9,5.6-12.5
				c3.7-3.6,8.8-5.4,15.2-5.4h66.1v-415.1h-66.1c-6.7,0-11.8-1.7-15.4-5.2c-3.6-3.5-5.4-7.7-5.4-12.7c0-5,1.9-9.3,5.6-12.9
				c3.7-3.6,8.9-5.4,15.6-5.4h185.1c6.4,0,11.4,1.9,15.2,5.6c3.7,3.7,5.6,8.1,5.6,13.1c0,4.7-1.7,8.8-5.2,12.3
				c-3.5,3.5-8.4,5.2-14.8,5.2h-80.3v218.8l239.6-216.3c1.9-1.9,2.9-3.3,2.9-4.2c0-1.7-2.6-2.5-7.9-2.5h-37c-6.4,0-11.4-1.5-15-4.6
				c-3.6-3-5.4-6.7-5.4-10.8c0-4.4,1.9-8.3,5.6-11.6c3.7-3.3,8.8-5,15.2-5h150.6c6.4,0,11.4,1.8,15,5.4c3.6,3.6,5.4,7.9,5.4,12.9
				c0,5-1.7,9.2-5.2,12.7c-3.5,3.5-8.4,5.2-14.8,5.2h-57.4l-182.2,169.7l216.7,245.4h57c6.4,0,11.3,1.8,14.8,5.4
				c3.5,3.6,5.2,7.8,5.2,12.5c0,5-1.8,9.2-5.4,12.7c-3.6,3.5-8.6,5.2-15,5.2h-173.8c-6.7,0-11.8-1.7-15.4-5.2
				c-3.6-3.5-5.4-7.7-5.4-12.7c0-4.7,1.8-8.9,5.4-12.5c3.6-3.6,8.6-5.4,15-5.4h69l-198.8-222.5l-76.9,64.9v157.6h101.5
				c6.4,0,11.4,1.8,15,5.4c3.6,3.6,5.4,7.8,5.4,12.5c0,5-1.8,9.2-5.4,12.7C-4600.6,3624.9-4605.7,3626.6-4612.4,3626.6z"/>
		</g>
	</g>
</g>
<g>
	<path d="M-3045.9,3808.9h-749.2c-27.5,0-50-22.5-50-50v-749.2c0-27.5,22.5-50,50-50h749.2c27.5,0,50,22.5,50,50v749.2
		C-2995.9,3786.4-3018.4,3808.9-3045.9,3808.9z"/>
	<g>
		<path class="st1" d="M-3441.8,3631.3h-208.4c-6.7,0-11.9-1.7-15.6-5.2c-3.7-3.5-5.6-7.7-5.6-12.7c0-4.7,1.9-8.9,5.6-12.5
			c3.7-3.6,8.8-5.4,15.2-5.4h66.1v-415.1h-66.1c-6.7,0-11.8-1.7-15.4-5.2c-3.6-3.5-5.4-7.7-5.4-12.7c0-5,1.9-9.3,5.6-12.9
			c3.7-3.6,8.9-5.4,15.6-5.4h185.1c6.4,0,11.4,1.9,15.2,5.6c3.7,3.7,5.6,8.1,5.6,13.1c0,4.7-1.7,8.8-5.2,12.3
			c-3.5,3.5-8.4,5.2-14.8,5.2h-80.3v218.8L-3305,3183c1.9-1.9,2.9-3.3,2.9-4.2c0-1.7-2.6-2.5-7.9-2.5h-37c-6.4,0-11.4-1.5-15-4.6
			c-3.6-3-5.4-6.7-5.4-10.8c0-4.4,1.9-8.3,5.6-11.6c3.7-3.3,8.8-5,15.2-5h150.6c6.4,0,11.4,1.8,15,5.4c3.6,3.6,5.4,7.9,5.4,12.9
			c0,5-1.7,9.2-5.2,12.7c-3.5,3.5-8.4,5.2-14.8,5.2h-57.4l-182.2,169.7l216.7,245.4h57c6.4,0,11.3,1.8,14.8,5.4
			c3.5,3.6,5.2,7.8,5.2,12.5c0,5-1.8,9.2-5.4,12.7c-3.6,3.5-8.6,5.2-15,5.2h-173.8c-6.7,0-11.8-1.7-15.4-5.2
			c-3.6-3.5-5.4-7.7-5.4-12.7c0-4.7,1.8-8.9,5.4-12.5c3.6-3.6,8.6-5.4,15-5.4h69l-198.8-222.5l-76.9,64.9v157.6h101.5
			c6.4,0,11.4,1.8,15,5.4c3.6,3.6,5.4,7.8,5.4,12.5c0,5-1.8,9.2-5.4,12.7C-3430.1,3629.6-3435.2,3631.3-3441.8,3631.3z"/>
		<path d="M-3469.8,3624.3h-208.4c-6.7,0-11.9-1.7-15.6-5.2c-3.7-3.5-5.6-7.7-5.6-12.7c0-4.7,1.9-8.9,5.6-12.5
			c3.7-3.6,8.8-5.4,15.2-5.4h66.1v-415.1h-66.1c-6.7,0-11.8-1.7-15.4-5.2c-3.6-3.5-5.4-7.7-5.4-12.7c0-5,1.9-9.3,5.6-12.9
			c3.7-3.6,8.9-5.4,15.6-5.4h185.1c6.4,0,11.4,1.9,15.2,5.6c3.7,3.7,5.6,8.1,5.6,13.1c0,4.7-1.7,8.8-5.2,12.3
			c-3.5,3.5-8.4,5.2-14.8,5.2h-80.3v218.8L-3333,3176c1.9-1.9,2.9-3.3,2.9-4.2c0-1.7-2.6-2.5-7.9-2.5h-37c-6.4,0-11.4-1.5-15-4.6
			c-3.6-3-5.4-6.7-5.4-10.8c0-4.4,1.9-8.3,5.6-11.6c3.7-3.3,8.8-5,15.2-5h150.6c6.4,0,11.4,1.8,15,5.4c3.6,3.6,5.4,7.9,5.4,12.9
			c0,5-1.7,9.2-5.2,12.7c-3.5,3.5-8.4,5.2-14.8,5.2h-57.4l-182.2,169.7l216.7,245.4h57c6.4,0,11.3,1.8,14.8,5.4
			c3.5,3.6,5.2,7.8,5.2,12.5c0,5-1.8,9.2-5.4,12.7c-3.6,3.5-8.6,5.2-15,5.2h-173.8c-6.7,0-11.8-1.7-15.4-5.2
			c-3.6-3.5-5.4-7.7-5.4-12.7c0-4.7,1.8-8.9,5.4-12.5c3.6-3.6,8.6-5.4,15-5.4h69l-198.8-222.5l-76.9,64.9v157.6h101.5
			c6.4,0,11.4,1.8,15,5.4c3.6,3.6,5.4,7.8,5.4,12.5c0,5-1.8,9.2-5.4,12.7C-3458.1,3622.6-3463.2,3624.3-3469.8,3624.3z"/>
	</g>
</g>
<g>
	<path d="M-734.4,854.2h-749.2c-27.5,0-50-22.5-50-50V55c0-27.5,22.5-50,50-50h749.2c27.5,0,50,22.5,50,50v749.2
		C-684.4,831.7-706.9,854.2-734.4,854.2z"/>
	<g>
		<path class="st1" d="M-1130.4,676.6h-208.4c-6.7,0-11.9-1.7-15.6-5.2c-3.7-3.5-5.6-7.7-5.6-12.7c0-4.7,1.9-8.9,5.6-12.5
			c3.7-3.6,8.8-5.4,15.2-5.4h66.1V225.8h-66.1c-6.7,0-11.8-1.7-15.4-5.2c-3.6-3.5-5.4-7.7-5.4-12.7c0-5,1.9-9.3,5.6-12.9
			c3.7-3.6,8.9-5.4,15.6-5.4h185.1c6.4,0,11.4,1.9,15.2,5.6c3.7,3.7,5.6,8.1,5.6,13.1c0,4.7-1.7,8.8-5.2,12.3
			c-3.5,3.5-8.4,5.2-14.8,5.2h-80.3v218.8l239.6-216.3c1.9-1.9,2.9-3.3,2.9-4.2c0-1.7-2.6-2.5-7.9-2.5h-37c-6.4,0-11.4-1.5-15-4.6
			c-3.6-3-5.4-6.7-5.4-10.8c0-4.4,1.9-8.3,5.6-11.6c3.7-3.3,8.8-5,15.2-5h150.6c6.4,0,11.4,1.8,15,5.4c3.6,3.6,5.4,7.9,5.4,12.9
			c0,5-1.7,9.2-5.2,12.7c-3.5,3.5-8.4,5.2-14.8,5.2h-57.4l-182.2,169.7L-907,640.8h57c6.4,0,11.3,1.8,14.8,5.4
			c3.5,3.6,5.2,7.8,5.2,12.5c0,5-1.8,9.2-5.4,12.7c-3.6,3.5-8.6,5.2-15,5.2h-173.8c-6.7,0-11.8-1.7-15.4-5.2
			c-3.6-3.5-5.4-7.7-5.4-12.7c0-4.7,1.8-8.9,5.4-12.5c3.6-3.6,8.6-5.4,15-5.4h69l-198.8-222.5l-76.9,64.9v157.6h101.5
			c6.4,0,11.4,1.8,15,5.4c3.6,3.6,5.4,7.8,5.4,12.5c0,5-1.8,9.2-5.4,12.7C-1118.6,674.9-1123.7,676.6-1130.4,676.6z"/>
		<path d="M-1158.4,669.6h-208.4c-6.7,0-11.9-1.7-15.6-5.2c-3.7-3.5-5.6-7.7-5.6-12.7c0-4.7,1.9-8.9,5.6-12.5
			c3.7-3.6,8.8-5.4,15.2-5.4h66.1V218.8h-66.1c-6.7,0-11.8-1.7-15.4-5.2c-3.6-3.5-5.4-7.7-5.4-12.7c0-5,1.9-9.3,5.6-12.9
			c3.7-3.6,8.9-5.4,15.6-5.4h185.1c6.4,0,11.4,1.9,15.2,5.6c3.7,3.7,5.6,8.1,5.6,13.1c0,4.7-1.7,8.8-5.2,12.3
			c-3.5,3.5-8.4,5.2-14.8,5.2h-80.3v218.8l239.6-216.3c1.9-1.9,2.9-3.3,2.9-4.2c0-1.7-2.6-2.5-7.9-2.5h-37c-6.4,0-11.4-1.5-15-4.6
			c-3.6-3-5.4-6.7-5.4-10.8c0-4.4,1.9-8.3,5.6-11.6c3.7-3.3,8.8-5,15.2-5h150.6c6.4,0,11.4,1.8,15,5.4c3.6,3.6,5.4,7.9,5.4,12.9
			c0,5-1.7,9.2-5.2,12.7c-3.5,3.5-8.4,5.2-14.8,5.2h-57.4l-182.2,169.7L-935,633.8h57c6.4,0,11.3,1.8,14.8,5.4
			c3.5,3.6,5.2,7.8,5.2,12.5c0,5-1.8,9.2-5.4,12.7c-3.6,3.5-8.6,5.2-15,5.2h-173.8c-6.7,0-11.8-1.7-15.4-5.2
			c-3.6-3.5-5.4-7.7-5.4-12.7c0-4.7,1.8-8.9,5.4-12.5c3.6-3.6,8.6-5.4,15-5.4h69l-198.8-222.5l-76.9,64.9v157.6h101.5
			c6.4,0,11.4,1.8,15,5.4c3.6,3.6,5.4,7.8,5.4,12.5c0,5-1.8,9.2-5.4,12.7C-1146.6,667.9-1151.7,669.6-1158.4,669.6z"/>
	</g>
</g>
<g>
	<path d="M-8206.9,3786.2h-208.4c-6.7,0-11.9-1.7-15.6-5.2c-3.7-3.5-5.6-7.7-5.6-12.7c0-4.7,1.9-8.9,5.6-12.5
		c3.7-3.6,8.8-5.4,15.2-5.4h66.1v-415.1h-66.1c-6.7,0-11.8-1.7-15.4-5.2c-3.6-3.5-5.4-7.7-5.4-12.7c0-5,1.9-9.3,5.6-12.9
		c3.7-3.6,8.9-5.4,15.6-5.4h185.1c6.4,0,11.4,1.9,15.2,5.6c3.7,3.7,5.6,8.1,5.6,13.1c0,4.7-1.7,8.8-5.2,12.3
		c-3.5,3.5-8.4,5.2-14.8,5.2h-80.3v218.8l239.6-216.3c1.9-1.9,2.9-3.3,2.9-4.2c0-1.7-2.6-2.5-7.9-2.5h-37c-6.4,0-11.4-1.5-15-4.6
		c-3.6-3-5.4-6.7-5.4-10.8c0-4.4,1.9-8.3,5.6-11.6c3.7-3.3,8.8-5,15.2-5h150.6c6.4,0,11.4,1.8,15,5.4c3.6,3.6,5.4,7.9,5.4,12.9
		c0,5-1.7,9.2-5.2,12.7c-3.5,3.5-8.4,5.2-14.8,5.2h-57.4l-182.2,169.7l216.7,245.4h57c6.4,0,11.3,1.8,14.8,5.4
		c3.5,3.6,5.2,7.8,5.2,12.5c0,5-1.8,9.2-5.4,12.7c-3.6,3.5-8.6,5.2-15,5.2h-173.8c-6.7,0-11.8-1.7-15.4-5.2
		c-3.6-3.5-5.4-7.7-5.4-12.7c0-4.7,1.8-8.9,5.4-12.5c3.6-3.6,8.6-5.4,15-5.4h69l-198.8-222.5l-76.9,64.9v157.6h101.5
		c6.4,0,11.4,1.8,15,5.4c3.6,3.6,5.4,7.8,5.4,12.5c0,5-1.8,9.2-5.4,12.7C-8195.2,3784.5-8200.3,3786.2-8206.9,3786.2z"/>
</g>
</svg>
